PathFileType	4	(X/Y/Z)	E:\Qualisys_Data\Carbon_Farble_Plate\Data\Amateur_Runner\S1\T2\S1T2V23_c3d.trc
DataRate	CameraRate	NumFrames	NumMarkers	Units	OrigDataRate	OrigDataStartFrame	OrigNumFrames
200.000000	200.000000	4	39	mm	200.000000	112	300
Frame#	Time	LSHO			RSHO			LICST			RICST			LASIS			LHEEL			RASIS			LTROC			RTROC			SACR			LTH1			LSK4			LTH2			LTH3			RHM5			LSK2			LTH4			RTH1			LTOE			RTH2			RTH3			RTH4			LLEP			RLEP			LSK1			LSK3			RSK1			LHM5			RSK2			LFT1			RSK3			RSK4			LLME			RLME			RTOE			RHEEL			RFT1			RFT2			LFT2			
		X1	Y1	Z1	X2	Y2	Z2	X3	Y3	Z3	X4	Y4	Z4	X5	Y5	Z5	X6	Y6	Z6	X7	Y7	Z7	X8	Y8	Z8	X9	Y9	Z9	X10	Y10	Z10	X11	Y11	Z11	X12	Y12	Z12	X13	Y13	Z13	X14	Y14	Z14	X15	Y15	Z15	X16	Y16	Z16	X17	Y17	Z17	X18	Y18	Z18	X19	Y19	Z19	X20	Y20	Z20	X21	Y21	Z21	X22	Y22	Z22	X23	Y23	Z23	X24	Y24	Z24	X25	Y25	Z25	X26	Y26	Z26	X27	Y27	Z27	X28	Y28	Z28	X29	Y29	Z29	X30	Y30	Z30	X31	Y31	Z31	X32	Y32	Z32	X33	Y33	Z33	X34	Y34	Z34	X35	Y35	Z35	X36	Y36	Z36	X37	Y37	Z37	X38	Y38	Z38	X39	Y39	Z39	

113	0.56	-809.6729736328125	1439.396606445312	-592.3701782226562	-824.3148803710938	1454.217041015625	-257.09521484375	-878.0308837890625	996.0594482421876	-549.2254638671875	-874.0619506835938	1002.918579101562	-245.4836578369141	-833.3324584960938	957.2232055664062	-523.5237426757812	-1156.3076171875	100.9629364013672	-415.236572265625	-834.3912353515625	956.0679931640624	-255.6346740722656	-946.2188720703124	878.6390380859375	-566.9489135742188	-937.9017944335938	862.8401489257812	-228.7859954833984	-992.8644409179688	1018.838500976562	-391.9771423339844	-812.802734375	722.104736328125	-548.0087890625	-1063.218383789062	246.7024841308594	-464.9128723144531	-895.1503295898438	713.7066650390625	-567.639404296875	-808.8880004882812	619.7969970703125	-529.3612060546875	-1022.860717773438	245.5202484130859	-229.8173980712891	-1003.701904296875	320.6532592773438	-508.023193359375	-893.8828735351562	616.3158569335938	-541.9093627929688	-763.4512939453125	800.55908203125	-237.3343963623047	-905.0240478515624	60.38785171508789	-422.7040405273438	-828.1113891601562	757.2962646484375	-213.9665374755859	-705.8887939453125	715.6331176757812	-233.8437347412109	-774.0960693359375	671.9393310546875	-219.3261413574219	-852.1096801757812	468.868408203125	-498.0257873535156	-671.5634155273438	543.70654296875	-249.9879455566406	-937.9339599609376	273.4845886230469	-485.4903259277344	-1001.695251464844	195.4311065673828	-475.451416015625	-822.0759887695312	453.1046752929688	-243.5055694580078	-974.1170043945312	48.51273345947266	-495.6816101074219	-854.998291015625	524.5297241210938	-265.7038269042969	-1151.90771484375	70.09689331054688	-390.7105407714844	-909.8419189453124	406.264404296875	-259.8050842285156	-941.0099487304688	475.6564636230469	-287.978759765625	-1092.400390625	118.5108337402344	-469.2722778320312	-1040.009521484375	379.5628356933594	-268.9864501953125	-970.141357421875	193.0967559814453	-293.5986633300781	-1105.239379882812	407.4142456054688	-323.2280883789062	-1121.632080078125	375.3865356445312	-348.3912048339844	-1126.707641601562	391.8002624511719	-295.4644775390625	-1156.685791015625	67.93524169921875	-444.6931457519531
114	0.565	-787.3333129882812	1442.735107421875	-591.04296875	-806.8256225585938	1456.878540039062	-256.0441284179688	-855.5407104492188	997.4898071289062	-549.2911987304688	-854.2609252929688	1006.421752929688	-245.7815551757812	-812.315673828125	957.3912353515624	-522.8356323242188	-1156.595092773438	102.5769882202148	-414.9866943359375	-815.169921875	959.2088623046876	-255.2321472167969	-925.9056396484376	880.0068969726562	-566.6721801757812	-917.2000732421876	866.529296875	-227.8045806884766	-972.3104858398438	1021.630798339844	-393.6008605957031	-796.6329956054688	722.6426391601562	-545.8389282226562	-1059.794067382812	249.7909240722656	-463.7964782714844	-878.9920654296875	715.6580810546875	-566.8656005859375	-795.6519775390625	619.8765869140625	-527.369873046875	-981.245849609375	239.3729553222656	-229.0193481445312	-999.517333984375	322.643310546875	-506.2135925292969	-880.8255615234375	618.2405395507812	-540.9104614257812	-742.1522216796875	807.3385620117188	-237.0185241699219	-904.492919921875	60.34955596923828	-422.4360046386719	-806.0150146484375	762.2578735351562	-214.0203552246094	-682.8057861328125	723.8706665039062	-233.8851165771484	-749.7055053710938	678.9070434570312	-219.5329284667969	-844.9807739257812	469.1700134277344	-496.7161254882812	-643.6919555664062	552.4039306640625	-249.9056854248047	-934.71728515625	274.7484436035156	-484.5131225585938	-999.1710815429688	198.2481689453125	-475.1217346191406	-790.6790771484375	454.8793640136719	-244.2289123535156	-974.0872192382812	48.80482864379883	-495.3684692382812	-827.390869140625	525.192626953125	-265.2764282226562	-1151.87939453125	71.45620727539062	-390.9036560058594	-876.2450561523438	404.7347412109375	-258.8161315917969	-910.5894775390624	472.2852172851562	-288.2204895019531	-1090.683349609375	121.5839614868164	-468.7710571289062	-1004.256958007812	374.2604370117188	-266.3605346679688	-925.8032836914062	189.6862487792969	-292.7628479003906	-1072.083251953125	396.4955139160156	-322.3851928710938	-1086.893798828125	363.576171875	-347.8809204101562	-1093.245849609375	379.8747253417969	-294.9352416992188	-1158.370483398438	69.97055053710938	-444.7901611328125
115	0.57	-764.6946411132812	1446.634521484375	-589.5899047851562	-789.079345703125	1459.64404296875	-255.0684204101562	-833.8829345703125	998.4356079101562	-549.8269653320312	-833.7215576171875	1010.183166503906	-246.3152160644531	-790.1866455078125	959.0264892578124	-523.1585083007812	-1155.6953125	104.8380508422852	-413.8382263183594	-794.5771484375	962.8331909179688	-255.1359558105469	-905.4000244140624	881.8048095703125	-566.0805053710938	-896.2772216796875	870.05615234375	-227.4388885498047	-952.0841674804688	1024.165893554688	-394.7259826660156	-780.1339721679688	722.6253662109375	-542.9014282226562	-1056.490112304688	253.3492889404297	-462.7423095703125	-861.8601684570312	717.5258178710938	-566.09375	-782.1173706054688	619.920166015625	-525.0303344726562	-939.57861328125	233.0682067871094	-228.1742706298828	-995.5131225585938	326.0527038574219	-504.8757934570312	-867.3324584960938	620.1847534179688	-539.2396240234375	-721.1300659179688	814.1277465820312	-237.203125	-904.3067626953124	60.30970001220703	-422.2343444824219	-783.7940063476562	767.6158447265625	-213.5951843261719	-659.593994140625	731.9263916015625	-233.7137298583984	-725.6990356445312	685.7408447265625	-220.0283813476562	-838.0015869140625	469.4583740234375	-495.3359985351562	-616.6018676757812	561.119140625	-250.3195648193359	-930.9175415039062	276.8349304199219	-484.0323486328125	-996.45849609375	200.6264190673828	-474.8469848632812	-759.3831176757812	456.2687377929688	-244.5204467773438	-973.9515991210938	49.29531860351562	-494.8484497070312	-799.7030029296875	525.867919921875	-264.7408447265625	-1151.427978515625	73.56779479980469	-390.0870361328125	-843.0186157226562	402.5109558105469	-258.6097412109375	-880.2709350585938	468.529296875	-287.9144592285156	-1088.841064453125	125.7377090454102	-468.3650817871094	-969.4805908203124	366.6432800292969	-265.8106079101562	-881.92724609375	186.4665985107422	-291.4964904785156	-1038.589111328125	384.8753967285156	-322.154541015625	-1051.587524414062	351.7532958984375	-347.0249328613281	-1058.882568359375	367.4475402832031	-294.158935546875	-1158.109375	73.31474304199219	-444.5528564453125
116	0.575	-742.258544921875	1450.60400390625	-587.9459838867188	-771.5892944335938	1462.865844726562	-253.8864440917969	-811.62646484375	1000.104370117188	-549.6026611328125	-813.4392700195312	1013.784606933594	-246.8553009033203	-768.6019287109375	960.2745361328124	-523.560546875	-1153.324829101562	111.1509170532227	-414.3655090332031	-774.4849243164062	966.4349365234376	-254.8500213623047	-884.8883666992188	884.0127563476562	-565.8577880859375	-874.9840087890625	874.7061157226562	-226.3532562255859	-929.5516967773438	1026.573974609375	-395.1977844238281	-763.3909912109375	722.25244140625	-539.4231567382812	-1053.182861328125	257.4281616210938	-461.3769226074219	-845.1382446289062	719.8916625976562	-564.85498046875	-768.8037719726562	619.8154296875	-521.8054809570312	-897.6851196289062	226.7051849365234	-227.2266998291016	-991.5074462890624	329.9064025878906	-503.1514892578125	-853.2111206054688	622.7568359375	-538.0241088867188	-699.7178955078125	820.9381713867188	-237.2026062011719	-903.8838500976562	59.74824523925781	-421.7916870117188	-760.8516845703125	773.0502319335938	-213.9445343017578	-636.8901977539062	740.6103515625	-234.4913787841797	-701.6509399414062	691.859130859375	-220.3724365234375	-830.8067626953125	470.3622131347656	-493.5926513671875	-590.3427734375	569.7494506835938	-249.7458648681641	-927.0714111328124	279.7543640136719	-483.4347534179688	-993.70166015625	204.5648651123047	-474.2948913574219	-729.0436401367188	458.8465881347656	-243.8303375244141	-973.280029296875	50.18768310546875	-494.2855834960938	-772.2758178710938	525.6654663085938	-264.2352294921875	-1149.47900390625	79.20789337158203	-390.9638671875	-809.4653930664062	401.0038146972656	-257.5133056640625	-850.388427734375	464.7466430664062	-287.1360778808594	-1087.029174804688	130.3817291259766	-468.0541076660156	-934.6525268554688	358.7942199707031	-265.0349426269531	-837.1317138671875	183.8398742675781	-291.874267578125	-1003.468872070312	373.6051025390625	-319.3322143554688	-1016.906433105469	339.9683532714844	-346.489013671875	-1024.19873046875	354.4692077636719	-293.2886657714844	-1156.305297851562	80.13058471679688	-444.8063354492188
